<svg width="359" height="240" viewBox="0 0 359 240" fill="none" xmlns="http://www.w3.org/2000/svg">
<path d="M89.69 59.1H157.49L147 99.3C145.558 104.664 142.396 109.406 138 112.8C133.629 116.191 128.232 117.99 122.7 117.9H91.19C84.3286 117.805 77.6353 120.024 72.19 124.2C66.611 128.519 62.563 134.512 60.64 141.3C59.2509 146.288 59.0965 151.539 60.19 156.6C61.1946 161.216 63.1757 165.563 66 169.35C68.8616 173.101 72.5599 176.131 76.8 178.2C81.2736 180.417 86.2072 181.548 91.2 181.5H110.4C112.115 181.47 113.811 181.85 115.35 182.606C116.889 183.362 118.226 184.474 119.25 185.85C120.372 187.178 121.143 188.767 121.492 190.47C121.841 192.174 121.758 193.937 121.25 195.6L109.25 240H88.25C74.4277 240.138 60.7813 236.894 48.5 230.55C36.7059 224.53 26.3895 215.976 18.29 205.5C10.2596 195.035 4.67303 182.905 1.93999 170C-0.959496 156.442 -0.596185 142.39 2.99999 129L4.19999 124.5C9.27472 105.704 20.3931 89.1004 35.84 77.25C43.4151 71.5063 51.8533 67.0004 60.84 63.9C70.1169 60.6835 79.8714 59.0606 89.69 59.1Z" fill="#FF6C2C"/>
<path d="M123.89 240L183 18.6C184.442 13.2365 187.604 8.49403 192 5.1C196.367 1.70855 201.761 -0.0906394 207.29 3.84822e-06H270C283.822 -0.136805 297.468 3.10736 309.75 9.45C321.532 15.461 331.83 24.0167 339.898 34.4976C347.966 44.9786 353.603 57.1224 356.4 70.05C359.403 83.6051 358.99 97.6938 355.2 111.05L354 115.55C351.471 124.994 347.417 133.962 342 142.1C333.984 154.167 323.103 164.058 310.329 170.89C297.555 177.722 283.286 181.282 268.8 181.25H214.5L225.3 140.75C226.801 135.496 229.957 130.866 234.3 127.55C238.671 124.159 244.068 122.36 249.6 122.45H267C274.008 122.458 280.819 120.133 286.36 115.841C291.9 111.55 295.855 105.537 297.6 98.75C298.981 93.9466 299.118 88.8712 298 84C296.983 79.3809 294.989 75.0332 292.15 71.25C289.265 67.483 285.575 64.4081 281.35 62.25C276.92 59.9468 271.993 58.7624 267 58.8H233.4L189.6 221.7C188.099 226.954 184.943 231.584 180.6 234.9C176.326 238.257 171.035 240.056 165.6 240H123.89Z" fill="#FF6C2C"/>
</svg>
