<svg width="66" height="66" viewBox="0 0 66 66" fill="none" xmlns="http://www.w3.org/2000/svg">
<g clip-path="url(#clip0_12_147)">
<path d="M64.7553 30.0593L35.9387 1.24484C34.2804 -0.414945 31.5887 -0.414945 29.9282 1.24484L23.9444 7.22859L31.5351 14.8193C33.2992 14.2233 35.3218 14.623 36.7281 16.0293C38.1409 17.4444 38.5378 19.4843 37.9273 21.2542L45.2428 28.5697C47.0126 27.9599 49.0548 28.3546 50.4683 29.7703C52.4439 31.7451 52.4439 34.9459 50.4683 36.9222C48.4921 38.8984 45.2913 38.8984 43.3143 36.9222C41.8284 35.4347 41.4612 33.2521 42.2136 31.4214L35.3913 24.5991L35.3905 42.5525C35.8721 42.7915 36.3269 43.1094 36.7281 43.5091C38.7036 45.4839 38.7036 48.6847 36.7281 50.6624C34.7518 52.6379 31.5496 52.6379 29.5762 50.6624C27.6007 48.6847 27.6007 45.4839 29.5762 43.5091C30.0643 43.0218 30.6292 42.6532 31.2317 42.4055V24.2848C30.6292 24.0386 30.0651 23.6722 29.5762 23.1812C28.0794 21.6865 27.7195 19.4901 28.4864 17.6522L21.0043 10.1687L1.24556 29.926C-0.414947 31.5872 -0.414947 34.279 1.24556 35.9387L30.0622 64.7539C31.7212 66.4137 34.4122 66.4137 36.0734 64.7539L64.7553 36.0727C66.4151 34.4122 66.4151 31.719 64.7553 30.0593Z" fill="#DE4C36"/>
</g>
<defs>
<clipPath id="clip0_12_147">
<rect width="66" height="66" fill="white"/>
</clipPath>
</defs>
</svg>
