<svg width="24" height="24" viewBox="0 0 24 24" fill="none" xmlns="http://www.w3.org/2000/svg">
<g clip-path="url(#clip0_200_42)">
<path d="M7.016 19.198H2.816C2.73476 19.198 2.65449 19.1804 2.58071 19.1463C2.50694 19.1123 2.44142 19.0627 2.38867 19.0009C2.33592 18.9392 2.29719 18.8667 2.27514 18.7885C2.2531 18.7103 2.24828 18.6282 2.261 18.548L5.093 0.584C5.11871 0.421297 5.20161 0.2731 5.32681 0.166051C5.452 0.0590025 5.61128 0.000123858 5.776 0L12.998 0C16.415 0 18.902 2.488 18.844 5.5C18.838 5.75 18.817 6 18.778 6.247C18.5297 7.84817 17.7174 9.3079 16.4875 10.3628C15.2577 11.4177 13.6913 11.9984 12.071 12H8.743C8.57848 11.9999 8.41935 12.0586 8.2943 12.1655C8.16925 12.2724 8.08651 12.4205 8.061 12.583L7.736 14.639L7.723 14.722L7.031 19.112L7.016 19.198ZM19.79 6.142C19.78 6.229 19.78 6.317 19.767 6.403C19.4884 8.24262 18.5581 9.9209 17.1456 11.132C15.7332 12.3431 13.9326 13.0064 12.072 13.001H9.007L8.724 14.796L8.711 14.879L8.019 19.269L7.885 20.112L7.871 20.2H6.86L6.363 23.35C6.35028 23.4302 6.3551 23.5123 6.37714 23.5905C6.39919 23.6687 6.43792 23.7412 6.49067 23.8029C6.54342 23.8647 6.60894 23.9143 6.68271 23.9483C6.75649 23.9824 6.83676 24 6.918 24H10.53C10.87 24 11.16 23.751 11.213 23.415L12.165 17.384C12.1907 17.2213 12.2736 17.0731 12.3988 16.9661C12.524 16.859 12.6833 16.8001 12.848 16.8H14.974C16.5942 16.7986 18.1606 16.2182 19.3905 15.1634C20.6203 14.1087 21.4327 12.6491 21.681 11.048C21.987 9.098 21.214 7.304 19.79 6.142Z" fill="white"/>
</g>
<defs>
<clipPath id="clip0_200_42">
<rect width="24" height="24" fill="white"/>
</clipPath>
</defs>
</svg>
