<svg width="24" height="24" viewBox="0 0 24 24" fill="none" xmlns="http://www.w3.org/2000/svg">
<path d="M9.952 16.9256C9.952 15.2286 10.1547 13.8733 10.56 12.8595C10.9867 11.8237 11.7653 10.9862 12.896 10.3471C13.6213 9.95041 14.1653 9.58677 14.528 9.2562C14.912 8.90358 15.168 8.53994 15.296 8.16529C15.424 7.79063 15.488 7.33884 15.488 6.80992C15.488 6.03857 15.2427 5.37741 14.752 4.82644C14.2613 4.27548 13.4613 4 12.352 4C11.136 4 10.2293 4.30854 9.632 4.92562C9.056 5.52066 8.69333 6.43526 8.544 7.66942L4 7.43801C4.128 5.98347 4.53333 4.70523 5.216 3.6033C5.92 2.47934 6.86933 1.59779 8.064 0.958677C9.28 0.319559 10.7093 0 12.352 0C13.9733 0 15.3493 0.29752 16.48 0.89256C17.6107 1.46556 18.4747 2.25895 19.072 3.27273C19.6907 4.2865 20 5.44352 20 6.7438C20 7.69146 19.8613 8.50689 19.584 9.19008C19.328 9.87328 18.9227 10.4904 18.368 11.0413C17.8133 11.5702 17.0987 12.0992 16.224 12.6281C15.6053 13.0028 15.1253 13.3884 14.784 13.7851C14.4427 14.1598 14.208 14.6006 14.08 15.1074C13.952 15.5923 13.888 16.1983 13.888 16.9256H9.952ZM9.472 24V19.0083H14.528V24H9.472Z" fill="white"/>
</svg>
