<svg width="24" height="24" viewBox="0 0 24 24" fill="none" xmlns="http://www.w3.org/2000/svg">
<g clip-path="url(#clip0_198_34)">
<path d="M10.2795 7.35635C10.2795 6.31085 11.151 5.9081 12.5482 5.9081C14.583 5.9081 17.1652 6.53135 19.2 7.6286V1.33385C16.983 0.448096 14.7705 0.110596 12.5527 0.110596C7.12949 0.110596 3.51524 2.94185 3.51524 7.67585C3.51524 15.0776 13.6777 13.8776 13.6777 17.0696C13.6777 18.3071 12.6045 18.7053 11.1135 18.7053C8.90099 18.7053 6.04124 17.7911 3.79649 16.5723V22.5956C6.10574 23.5923 8.59349 24.1083 11.109 24.1143C16.6687 24.1143 20.4982 21.7233 20.4982 16.9143C20.4982 8.93659 10.2795 10.3661 10.2795 7.35635Z" fill="white"/>
</g>
<defs>
<clipPath id="clip0_198_34">
<rect width="24" height="24" fill="white"/>
</clipPath>
</defs>
</svg>
