<svg width="91" height="91" viewBox="0 0 91 91" fill="none" xmlns="http://www.w3.org/2000/svg">
<path d="M45.5 66.4443C67.4878 66.4443 85.3125 57.0673 85.3125 45.5001C85.3125 33.933 67.4878 24.5559 45.5 24.5559C23.5122 24.5559 5.6875 33.933 5.6875 45.5001C5.6875 57.0673 23.5122 66.4443 45.5 66.4443Z" fill="url(#paint0_radial_12_125)"/>
<path d="M45.5 64.8887C66.6287 64.8887 83.757 56.2081 83.757 45.5C83.757 34.7919 66.6287 26.1113 45.5 26.1113C24.3713 26.1113 7.24303 34.7919 7.24303 45.5C7.24303 56.2081 24.3713 64.8887 45.5 64.8887Z" fill="#6280B6"/>
<path d="M53.2492 51.7562L55.146 41.9908C55.4162 41.155 55.4607 40.2627 55.2749 39.4042C55.0891 38.5457 54.6797 37.7516 54.0881 37.1024C52.4368 35.9298 50.4149 35.3991 48.4006 35.6094H45.1218L46.0631 30.775C46.0802 30.685 46.0773 30.5923 46.0545 30.5036C46.0317 30.4148 45.9896 30.3322 45.9312 30.2615C45.8728 30.1909 45.7996 30.1341 45.7167 30.095C45.6338 30.056 45.5433 30.0357 45.4516 30.0356H40.9017C40.7572 30.0356 40.6172 30.0858 40.5056 30.1776C40.3941 30.2694 40.318 30.3972 40.2902 30.539L38.274 40.9073C38.1189 39.7987 37.648 38.7582 36.9176 37.91C36.1043 37.0956 35.1233 36.4683 34.0428 36.072C32.9622 35.6756 31.8083 35.5197 30.6613 35.6151H21.8969C21.7524 35.615 21.6124 35.6652 21.5009 35.7571C21.3893 35.8489 21.3132 35.9766 21.2855 36.1184L17.2075 57.1053C17.1904 57.1953 17.1933 57.288 17.2161 57.3768C17.2389 57.4655 17.281 57.5481 17.3394 57.6188C17.3978 57.6894 17.471 57.7462 17.5539 57.7853C17.6368 57.8243 17.7273 57.8446 17.8189 57.8447H22.3775C22.5219 57.8447 22.6619 57.7945 22.7735 57.7027C22.885 57.6109 22.9612 57.4831 22.9889 57.3413L23.9757 52.2652H27.3882C28.8949 52.3055 30.3988 52.1136 31.8472 51.6965C33.0684 51.2924 34.1851 50.6233 35.1175 49.7371C35.8815 49.0412 36.5337 48.2316 37.0512 47.337L36.2351 51.5315C36.2179 51.6216 36.2208 51.7143 36.2436 51.803C36.2664 51.8918 36.3085 51.9744 36.3669 52.045C36.4253 52.1156 36.4985 52.1725 36.5814 52.2115C36.6643 52.2506 36.7548 52.2709 36.8465 52.2709H41.3965C41.5409 52.271 41.6809 52.2208 41.7925 52.1289C41.904 52.0371 41.9802 51.9094 42.0079 51.7676L44.2459 40.2475H47.357C48.6821 40.2475 49.0632 40.512 49.177 40.6258C49.2907 40.7395 49.4613 41.095 49.2481 42.2439L47.4423 51.5287C47.4251 51.6187 47.428 51.7114 47.4508 51.8002C47.4736 51.8889 47.5157 51.9715 47.5741 52.0422C47.6325 52.1128 47.7058 52.1696 47.7887 52.2087C47.8716 52.2477 47.962 52.268 48.0537 52.2681H52.6606C52.8023 52.2625 52.9379 52.2088 53.045 52.1157C53.152 52.0226 53.2241 51.8958 53.2492 51.7562ZM32.2197 43.697C32.0806 44.8909 31.5139 45.994 30.6243 46.8024C29.507 47.4974 28.1967 47.8173 26.8848 47.7152H24.8601L26.3246 40.1765H28.9437C30.8689 40.1765 31.6424 40.5888 31.9552 40.9329C32.1938 41.3481 32.3409 41.8096 32.3865 42.2863C32.4321 42.7631 32.3752 43.2441 32.2197 43.697Z" fill="white"/>
<path d="M72.6465 37.913C71.8332 37.0985 70.8522 36.4713 69.7717 36.0749C68.6911 35.6786 67.5372 35.5227 66.3902 35.6181H57.6002C57.4557 35.618 57.3157 35.6682 57.2042 35.76C57.0926 35.8519 57.0165 35.9796 56.9888 36.1214L52.9108 57.1083C52.8937 57.1983 52.8966 57.291 52.9194 57.3798C52.9422 57.4685 52.9843 57.5511 53.0427 57.6218C53.1011 57.6924 53.1743 57.7492 53.2572 57.7883C53.3401 57.8273 53.4306 57.8476 53.5222 57.8477H58.095C58.2395 57.8477 58.3795 57.7975 58.491 57.7057C58.6025 57.6139 58.6787 57.4861 58.7064 57.3443L59.6932 52.2682H63.1057C64.6124 52.3085 66.1163 52.1166 67.5647 51.6995C68.7859 51.2954 69.9027 50.6263 70.835 49.7401C72.4317 48.3012 73.5075 46.3744 73.8949 44.2602C74.2008 43.1786 74.2472 42.0401 74.0303 40.9372C73.8134 39.8343 73.3392 38.7981 72.6465 37.913ZM67.9059 43.6972C67.7668 44.891 67.2001 45.9942 66.3106 46.8025C65.1905 47.4984 63.877 47.8173 62.5625 47.7125H60.5435L62.008 40.1737H64.6271C66.5523 40.1737 67.3258 40.5861 67.6386 40.9302C67.8781 41.3456 68.0259 41.8074 68.072 42.2847C68.1181 42.762 68.0615 43.2436 67.9059 43.6972Z" fill="white"/>
<path d="M28.9437 39.551C29.5572 39.4738 30.18 39.5189 30.776 39.6839C31.372 39.8489 31.9294 40.1304 32.4159 40.5122C32.7298 40.9955 32.93 41.5437 33.0014 42.1156C33.0729 42.6875 33.0136 43.2681 32.8282 43.8138C32.6657 45.1574 32.0161 46.3948 31.0026 47.2917C29.7801 48.079 28.3351 48.4483 26.8848 48.3439H24.1036L25.8099 39.5595L28.9437 39.551ZM17.8047 57.2277H22.3775L23.4609 51.6483H27.3768C28.8181 51.6876 30.2569 51.5044 31.6424 51.1052C32.7795 50.7297 33.8188 50.1061 34.6852 49.2795C36.1849 47.9304 37.1949 46.1223 37.5574 44.138C37.8444 43.1512 37.8948 42.1107 37.7046 41.1008C37.5143 40.0909 37.0888 39.1401 36.4626 38.3253C35.7074 37.5784 34.7983 37.0052 33.7989 36.6456C32.7994 36.2861 31.7335 36.149 30.6755 36.2437H21.8969L17.8047 57.2277Z" fill="#000004"/>
<path d="M40.913 30.6614H45.463L44.3625 36.2408H48.4035C50.2595 36.0466 52.1241 36.5183 53.6644 37.5717C54.1742 38.1512 54.5227 38.8545 54.675 39.6112C54.8272 40.3679 54.7778 41.1513 54.5318 41.8828L52.635 51.6483H48.0309L49.8367 42.3634C49.9625 42.009 50.0073 41.631 49.968 41.257C49.9286 40.883 49.806 40.5226 49.6092 40.2022C48.9507 39.7304 48.1373 39.5271 47.3342 39.6334H43.7084L41.3709 51.6568H36.8209L40.913 30.6614Z" fill="#000004"/>
<path d="M64.6299 39.551C65.2435 39.4738 65.8663 39.5189 66.4623 39.6839C67.0583 39.8489 67.6156 40.1304 68.1021 40.5122C68.4161 40.9955 68.6163 41.5437 68.6877 42.1156C68.7591 42.6875 68.6999 43.2681 68.5145 43.8138C68.3519 45.1574 67.7024 46.3948 66.6888 47.2917C65.464 48.0808 64.0157 48.4502 62.5625 48.3439H59.7813L61.4876 39.5595L64.6299 39.551ZM53.491 57.2277H58.0637L59.1472 51.6483H63.063C64.5044 51.6876 65.9431 51.5044 67.3286 51.1052C68.4657 50.7297 69.5051 50.1061 70.3714 49.2795C71.8711 47.9304 72.8812 46.1223 73.2436 44.138C73.5306 43.1512 73.581 42.1107 73.3908 41.1008C73.2006 40.0909 72.7751 39.1401 72.1488 38.3253C71.3936 37.5784 70.4846 37.0052 69.4851 36.6456C68.4856 36.2861 67.4197 36.149 66.3618 36.2437H57.5689L53.491 57.2277Z" fill="#000004"/>
<defs>
<radialGradient id="paint0_radial_12_125" cx="0" cy="0" r="1" gradientUnits="userSpaceOnUse" gradientTransform="translate(29.5921 31.9212) scale(52.2795 52.2795)">
<stop stop-color="white"/>
<stop offset="0.5" stop-color="#4C6B96"/>
<stop offset="1" stop-color="#231F20"/>
</radialGradient>
</defs>
</svg>
