<svg width="66" height="59" viewBox="0 0 66 59" fill="none" xmlns="http://www.w3.org/2000/svg">
<g clip-path="url(#clip0_12_134)">
<path d="M54.2652 19.0327C53.5806 18.797 52.8711 18.574 52.1406 18.3631C52.2607 17.8731 52.3709 17.3895 52.4689 16.914C54.0772 9.1072 53.0256 2.81795 49.4349 0.747268C45.9918 -1.23825 40.3609 0.831971 34.674 5.78113C34.1271 6.25704 33.5787 6.76091 33.0305 7.28897C32.6653 6.93959 32.3006 6.60196 31.9369 6.27901C25.9769 0.987043 20.0028 -1.24306 16.4156 0.833615C12.9758 2.82489 11.9571 8.73737 13.4048 16.136C13.5446 16.8506 13.708 17.5804 13.8928 18.3224C13.0473 18.5624 12.2311 18.8183 11.4501 19.0905C4.46256 21.5266 0 25.3447 0 29.305C0 33.3953 4.79056 37.4979 12.0686 39.9855C12.643 40.1818 13.239 40.3675 13.8531 40.5437C13.6538 41.3462 13.4804 42.1326 13.3348 42.8996C11.9544 50.1698 13.0324 55.9426 16.4631 57.9213C20.0066 59.9647 25.9536 57.8643 31.7445 52.8024C32.2022 52.4022 32.6615 51.9779 33.1217 51.5331C33.7181 52.1075 34.3137 52.6511 34.906 53.1609C40.5151 57.9878 46.0551 59.9369 49.4826 57.9527C53.0226 55.9034 54.173 49.702 52.6794 42.157C52.5653 41.5808 52.4326 40.9921 52.2835 40.3929C52.7011 40.2695 53.1111 40.142 53.5109 40.0095C61.0772 37.5026 66 33.4499 66 29.305C66 25.3304 61.3935 21.4866 54.2652 19.0327ZM52.6242 37.3332C52.2633 37.4527 51.893 37.5682 51.5156 37.6801C50.6804 35.0358 49.553 32.2239 48.1735 29.3188C49.49 26.4828 50.5737 23.7069 51.3856 21.0797C52.0608 21.2751 52.716 21.4812 53.3475 21.6986C59.455 23.8011 63.1805 26.9097 63.1805 29.305C63.1805 31.8564 59.1571 35.1685 52.6242 37.3332ZM49.9135 42.7046C50.5739 46.0409 50.6683 49.0573 50.2308 51.4153C49.8377 53.5342 49.0472 54.9468 48.0697 55.5126C45.9898 56.7165 41.5418 55.1516 36.7448 51.0236C36.1948 50.5504 35.6409 50.0451 35.0853 49.5104C36.9449 47.4765 38.8036 45.112 40.6176 42.486C43.8082 42.2028 46.8226 41.74 49.5562 41.108C49.6908 41.6511 49.8104 42.1838 49.9135 42.7046ZM22.5009 55.3046C20.4687 56.0222 18.8502 56.0428 17.8719 55.4787C15.79 54.2779 14.9245 49.6429 16.1051 43.4254C16.2403 42.7134 16.4013 41.982 16.5868 41.2343C19.2904 41.8322 22.2827 42.2624 25.481 42.5217C27.3072 45.0913 29.2195 47.4532 31.1467 49.5213C30.7256 49.9278 30.3062 50.3148 29.8892 50.6794C27.3285 52.9177 24.7624 54.5058 22.5009 55.3046ZM12.9805 37.3176C9.76228 36.2176 7.10455 34.788 5.2828 33.228C3.64585 31.8261 2.81938 30.4344 2.81938 29.305C2.81938 26.9018 6.40238 23.8364 12.3782 21.7529C13.1033 21.5001 13.8623 21.2618 14.65 21.038C15.4759 23.7245 16.5593 26.5333 17.8667 29.3736C16.5424 32.2561 15.4436 35.1097 14.6096 37.8277C14.048 37.6663 13.504 37.4964 12.9805 37.3176ZM16.1718 15.5945C14.9315 9.25558 15.7552 4.4737 17.8282 3.27377C20.0362 1.99548 24.9187 3.81805 30.0648 8.3874C30.3937 8.67946 30.724 8.98514 31.0551 9.30139C29.1375 11.3604 27.2427 13.7046 25.4327 16.2591C22.3287 16.5468 19.3574 17.009 16.6255 17.6278C16.4538 16.9369 16.3016 16.2582 16.1718 15.5945ZM44.6412 22.6243C43.9882 21.4963 43.3177 20.3949 42.6342 19.3237C44.74 19.5899 46.7576 19.9432 48.6523 20.3757C48.0835 22.1987 47.3745 24.1048 46.5399 26.0588C45.9413 24.9222 45.3081 23.7762 44.6412 22.6243ZM33.0315 11.3164C34.332 12.7253 35.6343 14.2984 36.9153 16.0051C35.6245 15.9441 34.3176 15.9124 33 15.9124C31.6948 15.9124 30.3976 15.9434 29.1147 16.0033C30.397 14.3125 31.7107 12.7415 33.0315 11.3164ZM21.3474 22.6438C20.695 23.7751 20.0735 24.9148 19.4843 26.0567C18.6632 24.1095 17.9608 22.1947 17.387 20.3458C19.2701 19.9244 21.2782 19.5799 23.3706 19.3187C22.6775 20.3999 22.0015 21.5096 21.3474 22.6438ZM23.4309 39.4925C21.269 39.2513 19.2307 38.9245 17.3481 38.5147C17.9311 36.6328 18.649 34.6771 19.4874 32.688C20.0782 33.829 20.7022 34.9693 21.3585 36.103C22.0271 37.2579 22.7199 38.3892 23.4309 39.4925ZM33.1095 47.4924C31.7732 46.0506 30.4402 44.4557 29.1385 42.7402C30.4022 42.7898 31.6906 42.8151 33 42.8151C34.3453 42.8151 35.6751 42.7848 36.9841 42.7265C35.6988 44.473 34.4012 46.0704 33.1095 47.4924ZM46.5668 32.5866C47.449 34.5972 48.1926 36.5427 48.7831 38.3925C46.8695 38.8291 44.8034 39.1807 42.6265 39.4419C43.3116 38.3562 43.9879 37.2359 44.6525 36.0836C45.3249 34.9177 45.9632 33.7501 46.5668 32.5866ZM42.2102 34.675C41.1785 36.4639 40.1194 38.1715 39.0441 39.7835C37.0856 39.9235 35.0622 39.9956 33 39.9956C30.9461 39.9956 28.9483 39.9318 27.0244 39.807C25.9058 38.1739 24.8236 36.4612 23.7984 34.6904C22.776 32.9244 21.8353 31.1436 20.9826 29.3727C21.835 27.5977 22.7736 25.8148 23.7901 24.0521L23.7899 24.0524C24.8091 22.2849 25.8818 20.5806 26.9901 18.9577C28.953 18.8093 30.9657 18.7319 32.9999 18.7319C35.0432 18.7319 37.0587 18.8099 39.0209 18.9596C40.1123 20.5706 41.1777 22.2694 42.201 24.0371C43.2358 25.8247 44.1865 27.5957 45.0462 29.3326C44.1891 31.0994 43.2405 32.8883 42.2102 34.675ZM48.0265 3.18989C50.2367 4.46442 51.0961 9.60461 49.7075 16.345C49.6189 16.7751 49.5192 17.2131 49.4109 17.6571C46.6727 17.0253 43.6993 16.5551 40.5862 16.2631C38.7727 13.6805 36.8934 11.3327 35.007 9.3001C35.5142 8.81221 36.0206 8.34699 36.525 7.90797C41.3975 3.66756 45.9516 1.99337 48.0265 3.18989ZM33 23.4115C36.2549 23.4115 38.8936 26.05 38.8936 29.305C38.8936 32.5599 36.2549 35.1986 33 35.1986C29.7451 35.1986 27.1064 32.5599 27.1064 29.305C27.1064 26.05 29.7451 23.4115 33 23.4115Z" fill="#00D8FF"/>
</g>
<defs>
<clipPath id="clip0_12_134">
<rect width="66" height="58.7812" fill="white"/>
</clipPath>
</defs>
</svg>
