<svg width="66" height="40" viewBox="0 0 66 40" fill="none" xmlns="http://www.w3.org/2000/svg">
<mask id="mask0_73_30" style="mask-type:luminance" maskUnits="userSpaceOnUse" x="0" y="0" width="66" height="40">
<path d="M66 0H0V39.4453H66V0Z" fill="white"/>
</mask>
<g mask="url(#mask0_73_30)">
<path d="M18.6636 14.2928C18.6636 15.1014 18.751 15.7571 18.904 16.2379C19.0788 16.7187 19.2974 17.2432 19.6033 17.8114C19.7126 17.9862 19.7563 18.161 19.7563 18.314C19.7563 18.5326 19.6252 18.7511 19.3411 18.9697L17.9642 19.8875C17.7676 20.0187 17.5709 20.0842 17.396 20.0842C17.1775 20.0842 16.9589 19.975 16.7404 19.7783C16.4344 19.4504 16.1722 19.1008 15.9536 18.7511C15.7351 18.3796 15.5166 17.9644 15.2762 17.4617C13.5715 19.4723 11.4298 20.4776 8.85099 20.4776C7.01523 20.4776 5.55099 19.9531 4.48013 18.9041C3.40927 17.8551 2.86292 16.4564 2.86292 14.7081C2.86292 12.8505 3.51853 11.3425 4.85165 10.2061C6.18476 9.06966 7.95497 8.50144 10.206 8.50144C10.949 8.50144 11.7139 8.56701 12.5225 8.67628C13.3311 8.78555 14.1616 8.96038 15.0358 9.15707V7.56171C15.0358 5.90078 14.6861 4.7425 14.0086 4.06502C13.3093 3.38754 12.1291 3.05972 10.4464 3.05972C9.68145 3.05972 8.8947 3.14714 8.08609 3.34383C7.27748 3.54052 6.49073 3.78091 5.72583 4.08687C5.37616 4.23985 5.1139 4.32727 4.96092 4.37098C4.80794 4.41469 4.69867 4.43654 4.61125 4.43654C4.30529 4.43654 4.15231 4.218 4.15231 3.75906V2.6882C4.15231 2.33853 4.19603 2.07628 4.3053 1.9233C4.41457 1.77032 4.61126 1.61734 4.91722 1.46436C5.68212 1.07098 6.59999 0.743165 7.67085 0.480913C8.74171 0.196807 9.87815 0.0656813 11.0801 0.0656813C13.6808 0.0656813 15.5821 0.655747 16.806 1.83588C18.0079 3.01601 18.6199 4.80807 18.6199 7.21204V14.2928H18.6636ZM9.79073 17.6147C10.5119 17.6147 11.255 17.4836 12.0417 17.2213C12.8285 16.9591 13.5278 16.4783 14.1179 15.8226C14.4676 15.4074 14.7298 14.9485 14.8609 14.424C14.9921 13.8995 15.0795 13.2657 15.0795 12.5226V11.6048C14.4457 11.4518 13.7682 11.3206 13.0689 11.2332C12.3695 11.1458 11.6921 11.1021 11.0146 11.1021C9.55033 11.1021 8.47947 11.3862 7.75828 11.9763C7.03709 12.5663 6.68741 13.3968 6.68741 14.4895C6.68741 15.5167 6.94967 16.2816 7.49603 16.8061C8.02053 17.3524 8.78543 17.6147 9.79073 17.6147ZM27.3397 19.975C26.9464 19.975 26.6841 19.9094 26.5093 19.7564C26.3344 19.6253 26.1815 19.3193 26.0503 18.9041L20.9146 2.01071C20.7834 1.57363 20.7179 1.28952 20.7179 1.13654C20.7179 0.786873 20.8927 0.590185 21.2424 0.590185H23.3841C23.7993 0.590185 24.0834 0.655747 24.2364 0.808728C24.4113 0.939853 24.5424 1.24581 24.6735 1.66105L28.345 16.1286L31.7543 1.66105C31.8636 1.22396 31.9947 0.939853 32.1695 0.808728C32.3444 0.677602 32.6503 0.590185 33.0437 0.590185H34.7921C35.2073 0.590185 35.4914 0.655747 35.6662 0.808728C35.8411 0.939853 35.994 1.24581 36.0815 1.66105L39.5344 16.3034L43.3152 1.66105C43.4464 1.22396 43.5993 0.939853 43.7523 0.808728C43.9272 0.677602 44.2113 0.590185 44.6046 0.590185H46.6371C46.9868 0.590185 47.1834 0.765019 47.1834 1.13654C47.1834 1.24581 47.1616 1.35509 47.1397 1.48621C47.1179 1.61734 47.0742 1.79217 46.9868 2.03257L41.7199 18.9259C41.5887 19.363 41.4358 19.6471 41.2609 19.7783C41.0861 19.9094 40.802 19.9968 40.4305 19.9968H38.551C38.1358 19.9968 37.8517 19.9312 37.6768 19.7783C37.502 19.6253 37.349 19.3412 37.2616 18.9041L33.8742 4.80806L30.5086 18.8822C30.3993 19.3193 30.2682 19.6034 30.0934 19.7564C29.9185 19.9094 29.6126 19.975 29.2192 19.975H27.3397ZM55.4225 20.565C54.2861 20.565 53.1497 20.4339 52.057 20.1716C50.9642 19.9094 50.1119 19.6253 49.5437 19.2975C49.194 19.1008 48.9536 18.8822 48.8662 18.6855C48.7788 18.4889 48.7351 18.2703 48.7351 18.0736V16.9591C48.7351 16.5001 48.9099 16.2816 49.2378 16.2816C49.3689 16.2816 49.5 16.3034 49.6311 16.3471C49.7623 16.3908 49.9589 16.4783 50.1775 16.5657C50.9205 16.8935 51.7291 17.1557 52.5815 17.3306C53.4556 17.5054 54.3079 17.5928 55.1821 17.5928C56.5589 17.5928 57.6298 17.3524 58.3728 16.8716C59.1159 16.3908 59.5093 15.6915 59.5093 14.7955C59.5093 14.1836 59.3126 13.6809 58.9192 13.2657C58.5258 12.8504 57.7828 12.4789 56.7119 12.1293L53.543 11.1458C51.9477 10.6432 50.7676 9.90012 50.0464 8.91667C49.3252 7.95509 48.9536 6.88422 48.9536 5.7478C48.9536 4.82992 49.1503 4.02131 49.5437 3.32197C49.9371 2.62263 50.4616 2.01071 51.1172 1.52992C51.7729 1.02727 52.5159 0.655747 53.3901 0.393496C54.2642 0.131244 55.1821 0.0219727 56.1437 0.0219727C56.6245 0.0219727 57.1272 0.043827 57.6079 0.10939C58.1106 0.174953 58.5695 0.26237 59.0285 0.349787C59.4656 0.459059 59.8808 0.56833 60.2742 0.699456C60.6676 0.830582 60.9735 0.961708 61.1921 1.09283C61.498 1.26767 61.7166 1.4425 61.8477 1.63919C61.9788 1.81403 62.0444 2.05442 62.0444 2.36038V3.38754C62.0444 3.84648 61.8695 4.08687 61.5417 4.08687C61.3669 4.08687 61.0828 3.99946 60.7113 3.82462C59.4656 3.25641 58.0669 2.9723 56.5152 2.9723C55.2695 2.9723 54.2861 3.16899 53.6086 3.58422C52.9311 3.99946 52.5815 4.63323 52.5815 5.52926C52.5815 6.14118 52.8 6.66568 53.2371 7.08091C53.6742 7.49614 54.4828 7.91138 55.6411 8.2829L58.7444 9.26634C60.3179 9.76899 61.4543 10.4683 62.1318 11.3644C62.8093 12.2604 63.1371 13.2875 63.1371 14.424C63.1371 15.3637 62.9404 16.216 62.5689 16.9591C62.1755 17.7021 61.651 18.3577 60.9735 18.8822C60.296 19.4286 59.4874 19.822 58.5477 20.1061C57.5642 20.412 56.5371 20.565 55.4225 20.565Z" fill="#FF9900"/>
<path d="M59.553 31.1861C52.3629 36.4967 41.9166 39.3159 32.9345 39.3159C20.3464 39.3159 9.00399 34.6609 0.437099 26.9245C-0.240384 26.3125 0.371536 25.4821 1.18015 25.9629C10.4464 31.339 21.8762 34.5953 33.6994 34.5953C41.6762 34.5953 50.4397 32.9344 58.504 29.5251C59.706 28.9788 60.7331 30.3119 59.553 31.1861ZM62.547 27.7768C61.6292 26.5967 56.4715 27.2086 54.1331 27.4927C53.4338 27.5801 53.3245 26.9682 53.9583 26.5092C58.0669 23.6245 64.8199 24.4549 65.6066 25.4165C66.3934 26.4 65.3881 33.1529 61.5417 36.3874C60.9517 36.89 60.3835 36.6278 60.6457 35.9721C61.5199 33.8086 63.4649 28.9351 62.547 27.7768Z" fill="#FF9900"/>
</g>
</svg>
