<svg width="66" height="66" viewBox="0 0 66 66" fill="none" xmlns="http://www.w3.org/2000/svg">
<path d="M12.1729 56.1021L7.5405 4.125H58.4595L53.8209 56.0938L32.9691 61.875L12.1729 56.1021Z" fill="#1572B6"/>
<path d="M33 57.457L49.8506 52.7855L53.8147 8.37573H33V57.457Z" fill="#33A9DC"/>
<path d="M33 27.2065H41.4356L42.0172 20.6787H33V14.3035H33.0227H48.9844L48.8318 16.0133L47.2663 33.5817H33V27.2065Z" fill="white"/>
<path d="M33.0392 43.762L33.0103 43.7703L25.9112 41.8521L25.4574 36.7681H22.0069H19.0575L19.9506 46.7774L33.0082 50.4033L33.0392 50.395V43.762Z" fill="#EBEBEB"/>
<path d="M40.8932 33.3115L40.1259 41.8482L33.0165 43.7663V50.3993L46.0845 46.7776L46.1814 45.701L47.289 33.3115H40.8932Z" fill="white"/>
<path d="M33.0227 14.3035V18.2635V20.6622V20.6787H17.6447H17.624L17.4962 19.2452L17.2054 16.0133L17.0527 14.3035H33.0227Z" fill="#EBEBEB"/>
<path d="M33 27.2065V31.1665V33.5652V33.5817H26.0102H25.9895L25.8617 32.1483L25.5729 28.9164L25.4203 27.2065H33Z" fill="#EBEBEB"/>
</svg>
