<?xml version="1.0" encoding="utf-8"?>
<svg xmlns="http://www.w3.org/2000/svg" viewBox="240.006 0.072 256.0001 249.6833" width="256px" height="249.683px" preserveAspectRatio="none"><g id="object-0" transform="matrix(1, 0, 0, 1, 5.684341886080802e-14, 2.842170943040401e-14)"><g><circle cx="75.397" cy="76.647" r="36.941" style="fill: rgb(255, 255, 255);" transform="matrix(3.191796, 0, 0, 3.108461, 127.354181, -106.340532)"/><path fill="#161614" d="M 368.007 0.072 C 297.323 0.072 240.006 57.382 240.006 128.076 C 240.006 184.63 276.682 232.611 327.541 249.536 C 333.938 250.721 336.287 246.759 336.287 243.378 C 336.287 240.326 336.167 230.243 336.113 219.548 C 300.503 227.29 292.989 204.445 292.989 204.445 C 287.166 189.65 278.776 185.715 278.776 185.715 C 267.163 177.771 279.652 177.935 279.652 177.935 C 292.505 178.837 299.273 191.125 299.273 191.125 C 310.69 210.693 329.218 205.036 336.522 201.765 C 337.671 193.493 340.988 187.845 344.649 184.649 C 316.218 181.413 286.331 170.437 286.331 121.391 C 286.331 107.416 291.331 95.997 299.519 87.033 C 298.19 83.809 293.809 70.791 300.759 53.159 C 300.759 53.159 311.508 49.719 335.969 66.28 C 346.179 63.444 357.129 62.022 368.007 61.973 C 378.885 62.022 389.844 63.443 400.073 66.28 C 424.504 49.72 435.238 53.16 435.238 53.16 C 442.205 70.79 437.822 83.81 436.493 87.033 C 444.7 95.997 449.666 107.416 449.666 121.391 C 449.666 170.554 419.722 181.379 391.219 184.548 C 395.81 188.52 399.901 196.31 399.901 208.252 C 399.901 225.378 399.753 239.162 399.753 243.378 C 399.753 246.785 402.057 250.776 408.545 249.518 C 459.376 232.575 496.006 184.612 496.006 128.077 C 496.006 57.382 438.697 0.072 368.007 0.072 M 287.947 182.415 C 287.665 183.051 286.664 183.242 285.753 182.805 C 284.824 182.388 284.303 181.521 284.603 180.883 C 284.879 180.228 285.882 180.045 286.808 180.484 C 287.738 180.902 288.268 181.777 287.947 182.415 M 294.243 188.033 C 293.633 188.599 292.439 188.336 291.629 187.442 C 290.792 186.55 290.635 185.356 291.254 184.782 C 291.884 184.216 293.041 184.481 293.88 185.373 C 294.718 186.276 294.88 187.461 294.243 188.033 M 298.563 195.221 C 297.778 195.766 296.496 195.255 295.703 194.117 C 294.919 192.979 294.919 191.614 295.72 191.067 C 296.515 190.52 297.778 191.012 298.581 192.142 C 299.363 193.299 299.363 194.664 298.562 195.222 M 305.866 203.547 C 305.165 204.321 303.67 204.113 302.576 203.057 C 301.457 202.025 301.146 200.561 301.85 199.787 C 302.56 199.011 304.063 199.229 305.165 200.277 C 306.275 201.307 306.615 202.782 305.866 203.547 M 315.308 206.357 C 314.998 207.36 313.558 207.816 312.109 207.39 C 310.661 206.951 309.714 205.777 310.006 204.764 C 310.307 203.754 311.753 203.28 313.213 203.736 C 314.659 204.172 315.609 205.338 315.308 206.358 M 326.052 207.551 C 326.088 208.606 324.859 209.481 323.337 209.501 C 321.807 209.535 320.568 208.681 320.551 207.641 C 320.551 206.576 321.753 205.709 323.284 205.683 C 324.806 205.653 326.052 206.501 326.052 207.551 M 336.607 207.146 C 336.789 208.176 335.732 209.234 334.22 209.516 C 332.735 209.787 331.359 209.151 331.17 208.13 C 330.986 207.074 332.063 206.016 333.546 205.743 C 335.06 205.48 336.414 206.099 336.607 207.146"/></g></g></svg>