<svg width="66" height="66" viewBox="0 0 66 66" fill="none" xmlns="http://www.w3.org/2000/svg">
<path d="M12.1729 56.1021L7.53845 4.125H58.4616L53.8209 56.0938L32.9691 61.875L12.1729 56.1021Z" fill="#E44F26"/>
<path d="M33 57.457L49.8506 52.7855L53.8147 8.37573H33V57.457Z" fill="#F1662A"/>
<path d="M33 27.652H24.5644L23.9828 21.1242H33V14.749H32.9773H17.0156L17.1683 16.4609L18.7337 34.0272H33V27.652Z" fill="#EBEBEB"/>
<path d="M33 44.2077L32.9711 44.2159L25.872 42.2999L25.4182 37.2158H21.9677H19.0183L19.9114 47.2231L32.9711 50.8489L33 50.8407V44.2077Z" fill="#EBEBEB"/>
<path d="M32.9773 27.6521V34.0273H40.8272L40.0888 42.2959L32.9773 44.214V50.847L46.0474 47.2232L46.1422 46.1465L47.6396 29.364L47.7964 27.6521H46.0783H32.9773Z" fill="white"/>
<path d="M32.9773 14.749V18.709V21.1098V21.1242H48.3553H48.3759L48.5038 19.6928L48.7946 16.4609L48.9472 14.749H32.9773Z" fill="white"/>
</svg>
