<svg width="128" height="128" viewBox="0 0 128 128" fill="none" xmlns="http://www.w3.org/2000/svg">
<path d="M124.79 91.1575C124.79 91.1575 108.902 134.004 54.2017 124.029C53.341 123.869 52.5155 123.57 51.6795 123.317C51.484 123.26 51.2865 123.197 51.091 123.141C50.2697 122.886 49.4567 122.624 48.6487 122.342C48.5562 122.31 48.468 122.28 48.3742 122.246C47.6382 121.988 46.9062 121.713 46.1837 121.435C45.9945 121.362 45.8062 121.29 45.618 121.213C44.8395 120.905 44.065 120.584 43.2987 120.248C43.1575 120.186 43.0212 120.123 42.8777 120.06C42.207 119.762 41.5447 119.453 40.888 119.139C40.7175 119.052 40.5459 118.972 40.3742 118.891C40.2807 118.845 40.18 118.798 40.0842 118.75C39.6602 118.538 39.2462 118.318 38.8285 118.099C38.5062 117.933 38.1787 117.771 37.8585 117.599C37.267 117.277 36.6837 116.949 36.1035 116.615C35.8882 116.492 35.6709 116.373 35.4577 116.25C34.6697 115.786 33.89 115.305 33.1217 114.818C32.9045 114.679 32.6895 114.531 32.4752 114.387C31.9742 114.063 31.473 113.739 30.9822 113.4C30.9302 113.364 30.8805 113.327 30.8295 113.291C30.6392 113.162 30.4585 113.03 30.2692 112.892C29.7515 112.533 29.239 112.165 28.7317 111.79C28.4865 111.605 28.242 111.419 27.9987 111.233C27.5392 110.883 27.0819 110.524 26.6284 110.162C26.4029 109.981 26.1742 109.803 25.9487 109.62C25.3957 109.164 24.8444 108.7 24.3049 108.233C24.2029 108.143 24.0949 108.056 23.9909 107.962C23.9804 107.958 23.9732 107.95 23.9617 107.94C23.3494 107.404 22.7484 106.854 22.1527 106.293C21.9729 106.128 21.7939 105.953 21.6132 105.78C21.1682 105.353 20.7274 104.922 20.2939 104.486C20.1139 104.309 19.9362 104.13 19.7637 103.951C19.2034 103.375 18.6502 102.798 18.1097 102.209C18.0899 102.182 18.0702 102.166 18.0464 102.14C18.0369 102.13 18.0234 102.116 18.0142 102.105C17.4612 101.495 16.9184 100.873 16.3872 100.248C16.2384 100.072 16.0889 99.8925 15.9422 99.7147C15.5462 99.2375 15.1562 98.7615 14.7737 98.279C14.6147 98.0782 14.4557 97.8757 14.2987 97.674C13.8694 97.1197 13.4452 96.5615 13.0344 95.9937C12.9574 95.8877 12.8754 95.7837 12.8014 95.6797C12.7857 95.6622 12.7724 95.6432 12.7619 95.6257C12.2859 94.9675 11.8264 94.297 11.3752 93.6255C11.2349 93.4195 11.1029 93.2075 10.9677 92.9952C10.6412 92.4985 10.3209 92.0012 10.0112 91.4982C9.8492 91.2405 9.6952 90.9817 9.5392 90.7225C9.25745 90.2527 8.98195 89.7827 8.7147 89.3087C8.56195 89.0405 8.4112 88.7785 8.26345 88.503C8.1812 88.3575 8.09195 88.2075 8.01195 88.055C7.87145 87.801 7.7447 87.5362 7.60745 87.2772C7.39545 86.8707 7.1802 86.4622 6.97545 86.0485C-1.6638 68.775 -3.07355 47.625 8.23745 31.3677L17.0659 20.1705C7.1052 39.4222 11.5819 62.865 24.0429 79.8605C24.4929 80.4792 24.9537 81.0895 25.4244 81.6995C25.5702 81.8835 25.7164 82.0687 25.8622 82.2455C26.2539 82.7445 26.6542 83.2372 27.0587 83.725C27.2044 83.8965 27.3467 84.0647 27.4955 84.2415C28.0362 84.88 28.5892 85.514 29.1569 86.1325C29.1839 86.1625 29.21 86.1897 29.236 86.2187C29.7725 86.8042 30.3192 87.382 30.8754 87.952C31.048 88.1265 31.2237 88.2992 31.3995 88.474C31.8362 88.9197 32.2822 89.3525 32.7355 89.7827C32.907 89.9532 33.0795 90.1175 33.2575 90.287C33.8697 90.8567 34.4872 91.4232 35.1162 91.9765C35.1817 92.0337 35.2492 92.0865 35.3095 92.1395C35.8917 92.6457 36.4812 93.1387 37.078 93.6295C37.286 93.799 37.498 93.9682 37.71 94.1367C38.1787 94.514 38.653 94.8812 39.1302 95.246C39.358 95.4207 39.5917 95.5985 39.828 95.773C40.3467 96.1577 40.8707 96.5362 41.4 96.9105C41.5797 97.032 41.7545 97.1642 41.9365 97.2867C42.4835 97.6652 43.0407 98.0332 43.6 98.393C43.81 98.5325 44.018 98.678 44.23 98.8132C45.0015 99.3017 45.7812 99.782 46.5692 100.246C46.772 100.362 46.9747 100.471 47.1742 100.584C47.769 100.928 48.3647 101.266 48.9717 101.591C49.3002 101.774 49.6382 101.939 49.9707 102.115C50.4677 102.371 50.9647 102.631 51.4677 102.876C51.658 102.969 51.843 103.057 52.0292 103.145C52.6707 103.454 53.3142 103.751 53.965 104.046C54.119 104.113 54.2685 104.183 54.4235 104.249C55.1815 104.581 55.9475 104.899 56.72 105.203C56.9185 105.282 57.1172 105.358 57.3167 105.438C58.0195 105.71 58.7275 105.974 59.4437 106.227C59.555 106.266 59.6662 106.307 59.7742 106.346C60.5727 106.621 61.3762 106.883 62.1862 107.13C62.393 107.195 62.6 107.257 62.812 107.319C63.6415 107.565 64.466 107.83 65.3165 108.022C87.7597 113.13 111.446 108.543 124.79 91.1575ZM45.61 63.6895C46.8367 65.4455 48.1945 67.536 49.8215 68.9472C50.41 69.5967 51.0275 70.2297 51.6565 70.8525C51.8145 71.0145 51.9777 71.1705 52.141 71.3295C52.7502 71.9222 53.374 72.5055 54.0145 73.072C54.0415 73.0917 54.0655 73.119 54.0915 73.1377C54.0987 73.146 54.105 73.148 54.1102 73.1562C54.8215 73.778 55.5555 74.378 56.2997 74.9672C56.4652 75.0942 56.6292 75.2262 56.7967 75.3552C57.5442 75.928 58.3065 76.4915 59.0882 77.0277C59.1122 77.0442 59.1307 77.0612 59.1547 77.0777C59.4987 77.3167 59.8502 77.5392 60.1985 77.768C60.367 77.8762 60.526 77.9925 60.6942 78.0945C61.2535 78.4532 61.8182 78.8015 62.393 79.1362C62.4742 79.1862 62.5532 79.2277 62.6332 79.2745C63.127 79.5595 63.6312 79.8412 64.1345 80.1135C64.309 80.2112 64.488 80.2985 64.6667 80.392C65.014 80.573 65.3632 80.759 65.7167 80.9347C65.7697 80.9597 65.825 80.9845 65.876 81.0065C66.5965 81.361 67.323 81.704 68.0665 82.0262C68.2245 82.097 68.3887 82.1592 68.55 82.226C69.1437 82.4775 69.7425 82.724 70.3445 82.9547C70.6 83.0515 70.8592 83.144 71.1127 83.2365C71.6605 83.4402 72.2085 83.6255 72.7615 83.8105C73.0122 83.8902 73.2575 83.9725 73.508 84.0495C74.294 84.2927 75.0715 84.6025 75.8917 84.7377C118.125 91.7355 127.875 59.2182 127.875 59.2182C119.085 71.8765 102.064 77.916 83.9007 73.2022C83.095 72.99 82.3 72.7582 81.5107 72.5097C81.2672 72.4367 81.0302 72.358 80.79 72.2777C80.2287 72.0957 79.6702 71.9025 79.1165 71.7007C78.8637 71.6082 78.6102 71.5157 78.3615 71.42C77.7552 71.187 77.1555 70.946 76.562 70.6945C76.3987 70.6237 76.2355 70.5612 76.0765 70.4885C75.3312 70.1637 74.5972 69.8227 73.8735 69.465C73.5002 69.2827 73.1352 69.0902 72.7672 68.9015C72.555 68.7922 72.342 68.6827 72.13 68.5735C71.66 68.3182 71.1922 68.0535 70.7315 67.785C70.6222 67.722 70.508 67.6622 70.3967 67.5962C69.826 67.2615 69.2625 66.9167 68.7042 66.5627C68.5325 66.4532 68.3662 66.334 68.1947 66.2212C67.8255 65.9827 67.4587 65.741 67.0967 65.4957C66.3192 64.9592 65.5622 64.396 64.8147 63.8262C64.6422 63.6905 64.4707 63.558 64.3 63.4222C56.351 57.1445 50.05 48.5665 47.0515 38.8397C43.9127 28.7517 44.5897 17.428 50.03 8.23822L43.3462 17.6727C35.1674 29.444 35.6115 45.201 41.9915 57.6502C43.063 59.7375 44.2657 61.7615 45.61 63.6895ZM90.125 49.1265C90.4732 49.2565 90.8205 49.3717 91.1727 49.491C91.3267 49.5382 91.4805 49.5912 91.6355 49.637C92.1325 49.7935 92.6262 49.975 93.14 50.0715C116.461 54.5772 122.785 38.1042 124.469 35.68C118.928 43.6575 109.618 45.5725 98.1915 42.8002C97.2902 42.58 96.2985 42.254 95.427 41.9462C94.3115 41.5485 93.2147 41.0952 92.146 40.5822C90.1157 39.6075 88.184 38.425 86.3897 37.071C76.167 29.3137 69.817 14.5157 76.4872 2.46472L72.8775 7.43997C68.0557 14.5365 67.5827 23.3495 70.9272 31.1877C74.4557 39.5062 81.6862 46.033 90.125 49.1265Z" fill="#0868AC"/>
</svg>
