<svg width="66" height="66" viewBox="0 0 66 66" fill="none" xmlns="http://www.w3.org/2000/svg">
<path d="M14.3127 10.5296C10.5219 15.9772 10.9937 23.0655 13.8899 28.8549L14.1019 29.2664L14.2375 29.5273L14.322 29.6773L14.4731 29.9475C14.5628 30.1058 14.6551 30.2631 14.7495 30.4214L14.9073 30.6812C15.0119 30.8493 15.1187 31.0164 15.228 31.1829L15.3646 31.3938C15.5157 31.6192 15.6699 31.8435 15.8292 32.0647L15.8426 32.0817L15.921 32.1874C16.0587 32.3771 16.2004 32.5648 16.3443 32.751L16.5036 32.9536C16.632 33.115 16.7625 33.2748 16.895 33.4352L17.0445 33.6136C17.2224 33.8229 17.4044 34.0323 17.5895 34.2365L17.6004 34.2478L17.6215 34.271C17.8025 34.4685 17.9876 34.6619 18.1758 34.8552L18.3532 35.0341C18.4986 35.1806 18.6466 35.3244 18.7956 35.4678L18.9766 35.64C19.1761 35.8277 19.3772 36.0123 19.5829 36.1917L19.5922 36.2L19.6979 36.2897C19.8789 36.4469 20.063 36.6016 20.2486 36.7548L20.4765 36.9368C20.6281 37.058 20.7813 37.1781 20.9354 37.2957L21.1814 37.4818C21.3515 37.6071 21.5232 37.7303 21.6965 37.8515L21.8837 37.9845L21.9357 38.0217C22.0997 38.1351 22.2683 38.2439 22.4359 38.3527L22.6525 38.4971C22.9103 38.6595 23.1717 38.8209 23.4357 38.9766L23.6523 39.0988C23.8467 39.2107 24.0421 39.321 24.2401 39.4283L24.5654 39.5964L24.9862 39.815L25.0831 39.8619L25.2553 39.945C25.4755 40.0501 25.6977 40.1538 25.922 40.2538L26.0628 40.3167C26.3196 40.4291 26.5789 40.5369 26.8404 40.6405L27.0301 40.7148C27.2719 40.8086 27.5174 40.8999 27.7639 40.9865L27.8562 41.0185C28.1263 41.1134 28.3996 41.2005 28.6744 41.2866L28.8719 41.3454C29.1514 41.4299 29.4283 41.53 29.7165 41.5836C48.0485 44.9264 53.3734 30.5678 53.3734 30.5678C48.9009 36.3944 40.9628 37.9309 33.4414 36.2201C33.1563 36.1556 32.8799 36.0664 32.602 35.985L32.3926 35.921C32.1214 35.838 31.8517 35.7509 31.5841 35.658L31.4733 35.6183C31.2335 35.5338 30.9968 35.4451 30.7607 35.3538L30.5606 35.2755C30.3023 35.1734 30.045 35.0666 29.7913 34.9558L29.6376 34.8872C29.4195 34.7887 29.2035 34.6892 28.9885 34.5855L28.8008 34.4953C28.6322 34.4133 28.4656 34.3262 28.2986 34.2401L27.9639 34.0642C27.7602 33.956 27.5607 33.8425 27.3622 33.727L27.159 33.6141C26.8945 33.4579 26.6336 33.297 26.3753 33.1335L26.1639 32.9928C25.9767 32.8721 25.79 32.7489 25.6065 32.622L25.4265 32.4957C25.2492 32.3709 25.0733 32.2436 24.8996 32.1152L24.666 31.9383C24.5061 31.8161 24.3473 31.6929 24.1906 31.5666L23.9787 31.3964C23.7786 31.2324 23.5811 31.0664 23.3862 30.8968L23.3212 30.8426C23.1103 30.6575 22.9031 30.4672 22.6984 30.2765L22.523 30.1073C22.3714 29.9635 22.2219 29.8181 22.0755 29.6685L21.9002 29.4932C21.7135 29.3025 21.5305 29.1091 21.351 28.9126L21.3237 28.8832C21.1339 28.676 20.9483 28.464 20.7668 28.2495L20.6209 28.0763C20.4853 27.9134 20.3512 27.7473 20.2203 27.5808L20.0733 27.3977C19.915 27.193 19.7614 26.9888 19.6103 26.7816C15.4347 21.0855 13.9343 13.2294 17.2719 6.77789M26.0793 5.93948C23.3382 9.88401 23.4867 15.1656 25.6256 19.337C25.9839 20.0362 26.3871 20.7152 26.8378 21.3608C27.2482 21.9502 27.704 22.6504 28.2491 23.1232C28.4465 23.3408 28.6533 23.5532 28.8642 23.7615L29.0261 23.9219C29.2308 24.1204 29.4391 24.3158 29.6541 24.5056L29.6799 24.5278L29.6861 24.534C29.9243 24.7428 30.1703 24.9434 30.4198 25.1414L30.5864 25.2713C30.837 25.4631 31.0922 25.6518 31.3542 25.8318L31.3763 25.8488L31.7269 26.0793L31.893 26.1891C32.0802 26.3092 32.2694 26.4258 32.4622 26.5377L32.5427 26.5851C32.7087 26.6805 32.8768 26.7743 33.0454 26.8661L33.2243 26.9589L33.576 27.1415L33.6291 27.1657C33.8709 27.2843 34.1143 27.3993 34.3633 27.5076L34.5252 27.5746C34.7243 27.6586 34.9249 27.7411 35.127 27.8185L35.3848 27.9134C35.5684 27.9814 35.7519 28.0438 35.9375 28.1057L36.1871 28.1856C36.4506 28.2671 36.7115 28.3707 36.9858 28.4166C51.1397 30.7612 54.4072 19.8634 54.4072 19.8634C51.462 24.106 45.7576 26.1298 39.6707 24.5499C39.4005 24.4788 39.1334 24.4014 38.8689 24.3184L38.6281 24.2406C38.4399 24.1802 38.2527 24.1153 38.0676 24.0477L37.8144 23.9534C37.6113 23.875 37.4102 23.794 37.2106 23.7095L37.0482 23.6409C36.7981 23.5321 36.5522 23.4171 36.3098 23.2975L35.9396 23.1093L35.7261 22.9995C35.5684 22.9139 35.4116 22.8252 35.2574 22.7344L35.1455 22.671C34.9537 22.5591 34.765 22.4441 34.5784 22.3245L34.4072 22.2105L34.04 21.9672C33.7791 21.7872 33.5249 21.599 33.2749 21.4077L33.1026 21.2716C30.4384 19.1684 28.3264 16.2932 27.3225 13.0335C26.2701 9.6525 26.497 5.8575 28.3202 2.77715M35.9757 2.51006C34.3597 4.88812 34.2009 7.84214 35.3224 10.4687C36.5047 13.2567 38.9277 15.4435 41.7559 16.4809L42.1075 16.6021L42.2622 16.6516C42.4287 16.7042 42.5943 16.765 42.7665 16.797C50.5818 18.3073 52.7015 12.787 53.2656 11.9738C51.4089 14.6474 48.2883 15.2893 44.4593 14.3596C44.1571 14.2864 43.8245 14.1771 43.5332 14.0735C43.1594 13.9399 42.7912 13.7883 42.4329 13.6166C41.7533 13.2897 41.1051 12.8937 40.5039 12.44C37.0776 9.84019 34.9496 4.88142 37.1854 0.842529" fill="#0868AC"/>
<path d="M34.2164 49.652H32.0374C31.9167 49.652 31.7966 49.7489 31.7708 49.867L30.9973 53.4455L30.2239 57.0239C30.1986 57.142 30.0785 57.2389 29.9578 57.2389H28.4156C26.8899 57.2389 27.0662 56.1834 27.3787 54.7376L27.388 54.6938L27.422 54.5113L27.4282 54.4772L27.4978 54.106L27.5726 53.7084L27.652 53.3037L28.0036 51.5856L28.3558 49.8675C28.38 49.7489 28.3006 49.6515 28.18 49.6515H25.9437C25.823 49.6515 25.7034 49.7484 25.6787 49.867L25.1976 52.1482L24.717 54.4298L24.716 54.4329L24.6716 54.6453C24.1179 57.1734 24.2643 59.585 27.2745 59.6608L27.3622 59.6624H32.0869C32.2075 59.6624 32.3276 59.5654 32.3529 59.4473L33.3718 54.6577L34.3907 49.8675C34.4159 49.7489 34.3376 49.6525 34.2164 49.652ZM10.8813 49.6267H8.48876C8.36758 49.6267 8.24693 49.7237 8.22012 49.8412L7.99324 50.8426L7.76637 51.8439C7.74007 51.962 7.8169 52.0584 7.93807 52.0584H10.3491C10.4703 52.0584 10.5904 51.9615 10.6162 51.8434L10.8354 50.8426L11.0545 49.8418C11.0798 49.7237 11.0024 49.6267 10.8813 49.6267ZM10.1872 52.7432H7.77565C7.65499 52.7432 7.53382 52.8401 7.50701 52.9577L7.16824 54.4582L6.82999 55.9581L6.73563 56.3881L6.41027 57.9195L6.08543 59.4515C6.06016 59.5695 6.00809 59.7603 5.96941 59.8748C5.96941 59.8748 5.51876 61.2154 4.7613 61.2L4.66643 61.1979L4.01107 61.186C3.89041 61.1845 3.76873 61.2788 3.74037 61.3959L3.49029 62.4472L3.24073 63.4981C3.21237 63.6157 3.28868 63.7126 3.40882 63.7147C3.83834 63.7198 4.80049 63.7306 5.38263 63.7306C7.27446 63.7306 8.27219 62.6824 8.91105 59.666L9.65923 56.2041L10.361 52.9572C10.3863 52.8401 10.3079 52.7432 10.1872 52.7432ZM54.5913 51.9316L54.4913 51.5186L54.3928 51.0958L54.3428 50.8823C54.1468 50.1207 53.5719 49.6819 52.3231 49.6819L50.3792 49.6799L48.5889 49.6773H46.5744C46.4537 49.6773 46.3341 49.7742 46.3088 49.8923L46.2196 50.313L46.1144 50.8101L46.085 50.9498L45.1781 55.1986L44.317 59.2318C44.2912 59.3504 44.2829 59.4958 44.2974 59.5546C44.3118 59.6139 44.5443 59.6624 44.665 59.6624H46.4821C46.6032 59.6624 46.7564 59.6407 46.8224 59.6139C46.8884 59.5871 46.9858 59.3494 47.0101 59.2313L47.3328 57.6334L47.6561 56.0349L47.6567 56.0324L47.7 55.8194L48.0919 53.9838L48.4378 52.3627C48.4636 52.2446 48.5827 52.1482 48.7034 52.1476L54.4211 52.1451C54.5423 52.1461 54.6186 52.0497 54.5913 51.9316ZM61.9519 48.1985L61.5115 48.2H59.6816C59.5604 48.2 59.4052 48.282 59.3376 48.382L55.2905 54.3107C55.2224 54.4107 55.1446 54.3963 55.1178 54.2787L54.8197 52.9726C54.7929 52.8546 54.6717 52.7581 54.5506 52.7581H51.9492C51.8281 52.7581 51.7564 52.853 51.7894 52.969L52.9552 57.0533C52.9882 57.1698 52.9908 57.3606 52.9609 57.4782L52.453 59.4546C52.4226 59.5721 52.4968 59.6675 52.618 59.6675H55.1894C55.3101 59.6675 55.4338 59.5716 55.4637 59.4546L55.9721 57.4782C56.0021 57.3601 56.0861 57.1858 56.1593 57.0889L62.7294 48.3691C62.8026 48.2722 62.7629 48.1933 62.6423 48.1943L61.9519 48.1985ZM41.2825 53.3129V53.3109C41.2676 53.4419 41.1464 53.5383 41.0252 53.5383H37.7268C37.6123 53.5383 37.5545 53.4609 37.5716 53.365L37.5746 53.3573L37.5726 53.3583L37.5741 53.3475L37.5891 53.2913C37.9041 52.4539 38.5456 51.9043 39.7516 51.9043C41.1098 51.9037 41.3748 52.5668 41.2825 53.3129ZM40.3147 49.5056C36.0809 49.5056 35.0775 52.0755 34.5144 54.6696C33.9519 57.3137 33.9998 59.7851 38.3816 59.7851H38.9127L39.0447 59.7846H39.0756L39.6016 59.783H39.6108C40.7679 59.7784 41.9286 59.7696 42.3983 59.766C42.5185 59.7639 42.636 59.6675 42.6608 59.5494L42.8381 58.6827L42.8727 58.5141L43.0841 57.4797C43.1083 57.3616 43.0294 57.2642 42.9083 57.2642H38.9694C37.4024 57.2642 36.9373 56.8481 37.109 55.624H43.4053L43.4048 55.6245L43.4089 55.624C43.509 55.6224 43.6018 55.5533 43.6384 55.4616L43.6534 55.4069L43.6528 55.4074C44.5877 51.8811 44.3195 49.5061 40.3147 49.5056ZM20.3033 53.2995L20.2435 53.5104L19.7681 55.196L19.2926 56.8806C19.2602 56.9976 19.1338 57.0925 19.0127 57.0925H16.4964C14.5876 57.0925 14.1225 55.5992 14.5876 53.3975C15.0521 51.1453 15.9633 49.7453 17.8422 49.6035C20.41 49.4097 20.9236 51.2154 20.3033 53.2995ZM22.0296 56.9631C22.0296 56.9631 23.216 54.0817 23.4852 52.4183C23.8528 50.1914 22.7375 46.9604 18.43 46.9604C14.1472 46.9604 12.2868 50.0444 11.5774 53.3975C10.8679 56.7749 11.7975 59.7361 16.0561 59.7119L19.4159 59.6995L22.5555 59.6881C22.6762 59.6871 22.7999 59.5912 22.8309 59.4747L23.3779 57.3885C23.4084 57.2709 23.3346 57.175 23.2135 57.174L22.6891 57.1709L22.1647 57.1678C22.0621 57.1672 22.0033 57.1002 22.0157 57.012L22.0296 56.9631ZM43.2321 55.0341C43.2321 55.114 43.1676 55.179 43.0877 55.179C43.0083 55.179 42.9433 55.114 42.9433 55.0341C42.9433 54.9547 43.0078 54.8902 43.0877 54.8902C43.1676 54.8902 43.2321 54.9547 43.2321 55.0341Z" fill="#131B28"/>
</svg>
