<svg width="66" height="66" viewBox="0 0 66 66" fill="none" xmlns="http://www.w3.org/2000/svg">
<g clip-path="url(#clip0_12_136)">
<path d="M0 0H66V66H0V0Z" fill="#F7DF1E"/>
<path d="M17.3538 55.1543L22.4046 52.0977C23.379 53.8253 24.2654 55.2871 26.3915 55.2871C28.4295 55.2871 29.7144 54.4898 29.7144 51.3889V30.3003H35.9168V51.4765C35.9168 57.9005 32.1512 60.8246 26.6574 60.8246C21.6958 60.8246 18.8157 58.2549 17.3537 55.1538" fill="black"/>
<path d="M39.2857 54.4898L44.3359 51.5658C45.6653 53.7369 47.3931 55.3317 50.4499 55.3317C53.0198 55.3317 54.6586 54.0468 54.6586 52.2746C54.6586 50.1481 52.9752 49.3948 50.1397 48.1548L48.5895 47.4898C44.1146 45.5851 41.1462 43.1927 41.1462 38.1421C41.1462 33.4902 44.6904 29.9458 50.2285 29.9458C54.1715 29.9458 57.0069 31.3193 59.0446 34.908L54.2155 38.009C53.1522 36.1041 52.0007 35.3511 50.2286 35.3511C48.4121 35.3511 47.2602 36.503 47.2602 38.009C47.2602 39.8698 48.4121 40.6231 51.0701 41.7751L52.6205 42.4396C57.8927 44.6992 60.8611 47.0027 60.8611 52.186C60.8611 57.7686 56.4751 60.8252 50.5829 60.8252C44.8235 60.8252 41.1019 58.0786 39.2857 54.4898Z" fill="black"/>
</g>
<defs>
<clipPath id="clip0_12_136">
<rect width="66" height="66" fill="white"/>
</clipPath>
</defs>
</svg>
