<svg width="66" height="69" viewBox="0 0 66 69" fill="none" xmlns="http://www.w3.org/2000/svg">
<path d="M65.9628 15.3707C65.9873 15.4613 66 15.5546 66 15.6485V30.2324C66 30.6134 65.7962 30.9653 65.4657 31.1549L53.2251 38.2023V52.1708C53.2251 52.551 53.023 52.9019 52.6934 53.0933L27.1422 67.8022C27.0837 67.8354 27.0199 67.8567 26.9561 67.8793C26.9322 67.8873 26.9096 67.9019 26.8844 67.9086C26.7057 67.9556 26.518 67.9556 26.3394 67.9086C26.3101 67.9006 26.2836 67.8846 26.2556 67.874C26.1972 67.8527 26.136 67.8341 26.0802 67.8022L0.534338 53.0933C0.204026 52.9036 0 52.5518 0 52.1708V8.41897C0 8.32327 0.013292 8.23022 0.0372175 8.13984C0.0451927 8.10926 0.0638015 8.08135 0.0744351 8.05078C0.0943731 7.99495 0.112982 7.9378 0.142224 7.88596C0.162162 7.8514 0.191405 7.82349 0.21533 7.79159C0.245902 7.74905 0.273815 7.70519 0.309703 7.66797C0.340275 7.6374 0.380151 7.6148 0.41471 7.58822C0.453257 7.55632 0.487816 7.52176 0.531679 7.4965H0.533008L13.3066 0.142053C13.6358 -0.047351 14.0408 -0.047351 14.37 0.142053L27.1436 7.4965H27.1462C27.1887 7.52309 27.2246 7.55632 27.2632 7.58689C27.2977 7.61347 27.3363 7.6374 27.3669 7.66664C27.4041 7.70519 27.4307 7.74905 27.4626 7.79159C27.4852 7.82349 27.5157 7.8514 27.5343 7.88596C27.5649 7.93913 27.5822 7.99495 27.6035 8.05078C27.6141 8.08135 27.6327 8.10926 27.6407 8.14117C27.6651 8.23175 27.6777 8.32514 27.6779 8.41897V35.7459L38.3221 29.617V15.6471C38.3221 15.5541 38.3354 15.4597 38.3593 15.3707C38.3686 15.3388 38.3859 15.3109 38.3965 15.2803C38.4178 15.2245 38.4364 15.1673 38.4657 15.1155C38.4856 15.0809 38.5148 15.053 38.5374 15.0211C38.5693 14.9786 38.5959 14.9347 38.6331 14.8975C38.6637 14.8669 38.7023 14.8443 38.7368 14.8177C38.7767 14.7858 38.8113 14.7513 38.8538 14.726H38.8551L51.63 7.37156C51.9591 7.18188 52.3643 7.18188 52.6934 7.37156L65.467 14.726C65.5122 14.7526 65.5467 14.7858 65.5866 14.8164C65.6199 14.843 65.6584 14.8669 65.689 14.8961C65.7262 14.9347 65.7528 14.9786 65.7847 15.0211C65.8086 15.053 65.8378 15.0809 65.8564 15.1155C65.887 15.1673 65.9043 15.2245 65.9256 15.2803C65.9375 15.3109 65.9548 15.3388 65.9628 15.3707ZM63.8706 29.617V17.4894L59.4005 20.0627L53.2251 23.6183V35.7459L63.872 29.617H63.8706ZM51.097 51.5554V39.4199L45.0226 42.8891L27.6766 52.7889V65.0388L51.097 51.5554ZM2.12938 10.2599V51.5554L25.5472 65.0375V52.7903L13.3132 45.8665L13.3093 45.8638L13.3039 45.8611C13.2627 45.8372 13.2282 45.8027 13.1896 45.7734C13.1564 45.7468 13.1179 45.7256 13.0886 45.6963L13.086 45.6923C13.0514 45.6591 13.0275 45.6179 12.9982 45.5807C12.9716 45.5448 12.9397 45.5142 12.9185 45.477L12.9171 45.473C12.8932 45.4331 12.8786 45.3853 12.8613 45.3401C12.844 45.3002 12.8214 45.263 12.8108 45.2205V45.2191C12.7975 45.1686 12.7949 45.1155 12.7895 45.0636C12.7842 45.0238 12.7736 44.9839 12.7736 44.944V44.9413V16.3888L6.59947 12.8319L2.12938 10.2612V10.2599ZM13.8396 2.2927L3.19672 8.41897L13.837 14.5452L24.4785 8.41764L13.837 2.2927H13.8396ZM19.3744 40.5257L25.5485 36.9715V10.2599L21.0784 12.8332L14.903 16.3888V43.1004L19.3744 40.5257ZM52.1617 9.5222L41.5202 15.6485L52.1617 21.7747L62.8019 15.6471L52.1617 9.5222ZM51.097 23.6183L44.9216 20.0627L40.4515 17.4894V29.617L46.6256 33.1713L51.097 35.7459V23.6183ZM26.6105 50.948L42.2193 42.037L50.0217 37.5842L39.3881 31.4619L27.1449 38.5107L15.9863 44.9347L26.6105 50.948Z" fill="#FF2D20"/>
</svg>
