<svg width="91" height="91" viewBox="0 0 91 91" fill="none" xmlns="http://www.w3.org/2000/svg">
<path d="M1.42259 64.3099H4.34312V52.7763L8.86468 62.8311C9.39788 64.0482 10.128 64.4784 11.5606 64.4784C12.9931 64.4784 13.6955 64.0482 14.2287 62.8311L18.7503 52.7763V64.3099H21.6708V52.7955C21.6708 51.6722 21.2215 51.1284 20.2944 50.8483C18.0756 50.1558 16.5869 50.7551 15.9129 52.2531L11.476 62.1763L7.17976 52.2524C6.53352 50.7551 5.01709 50.1558 2.79825 50.8476C1.87119 51.1284 1.42188 51.6715 1.42188 52.7948L1.42259 64.3099ZM24.1001 54.9212H27.0199V61.2756C26.9929 61.6204 27.1308 62.4309 28.7304 62.4565C29.5466 62.4693 35.0307 62.4565 35.0819 62.4565V54.8899H38.0089C38.0224 54.8899 38.006 65.2085 38.006 65.2511C38.0216 67.7963 34.8487 68.3487 33.3856 68.3914H24.1633V66.4263C24.179 66.4263 33.3792 66.4285 33.402 66.4256C35.2824 66.2273 35.0599 65.2931 35.0592 64.9789V64.2125H28.852C25.9641 64.1862 24.1242 62.9257 24.1008 61.4754C24.0994 61.3424 24.1641 54.9852 24.1001 54.9212Z" fill="#00618A"/>
<path d="M40.2604 64.3099H48.658C49.6412 64.3099 50.5967 64.1045 51.3546 63.749C52.6179 63.1689 53.2357 62.3826 53.2357 61.3517V59.2175C53.2357 58.375 52.534 57.588 51.1576 57.0648C50.4275 56.7832 49.5282 56.6346 48.6573 56.6346H45.1182C43.9388 56.6346 43.3771 56.2792 43.2371 55.4929C43.2094 55.399 43.2094 55.3244 43.2094 55.2305V53.9011C43.2094 53.8264 43.2094 53.7511 43.2371 53.6579C43.3771 53.0586 43.6864 52.8901 44.7258 52.7963L45.0066 52.7778H53.348V50.8313H45.1474C43.9679 50.8313 43.3501 50.9059 42.7885 51.0744C41.0474 51.6176 40.2881 52.4785 40.2881 53.9764V55.6798C40.2881 56.9908 41.7775 58.1141 44.2765 58.3764C44.558 58.3942 44.8381 58.4141 45.1189 58.4141H48.1525C48.2648 58.4141 48.3772 58.4141 48.4618 58.4319C49.3888 58.5065 49.7813 58.6757 50.0628 59.012C50.2313 59.1805 50.2867 59.3497 50.2867 59.536V61.2401C50.2867 61.4456 50.1467 61.7079 49.8659 61.9325C49.6135 62.1572 49.1919 62.3072 48.6303 62.3449L48.321 62.3634H40.2604V64.3099ZM71.457 60.9216C71.457 62.9243 72.9457 64.0476 75.9502 64.2729C76.231 64.2914 76.5118 64.3099 76.7926 64.3099H84.4039V62.3634H76.7372C75.0238 62.3634 74.3783 61.9325 74.3783 60.9024V50.8298H71.4577L71.457 60.9216ZM55.0998 61.0225V54.0802C55.0998 52.3171 56.3382 51.2472 58.7867 50.9095C59.0398 50.8718 59.322 50.8533 59.5744 50.8533H65.119C65.4006 50.8533 65.6537 50.8718 65.9345 50.9095C68.3829 51.2472 69.6221 52.3164 69.6221 54.0802V61.0225C69.6221 62.4544 69.096 63.2193 67.8839 63.7184L70.7617 66.3155H67.3699L65.0422 64.2139L62.699 64.3625H59.5744C59.0398 64.3625 58.4775 64.2879 57.8582 64.1187C56.0005 63.6125 55.0998 62.6364 55.0998 61.0225ZM58.2521 60.8541C58.2521 60.9479 58.2798 61.0424 58.3082 61.1548C58.4767 61.9617 59.2374 62.4117 60.3906 62.4117H63.0438L60.6067 60.2114H63.9986L66.1236 62.1309C66.516 61.9212 66.7734 61.6027 66.8637 61.1925C66.8914 61.0986 66.8914 61.0048 66.8914 60.9109V54.2509C66.8914 54.1762 66.8914 54.0817 66.8637 53.9878C66.6945 53.2371 65.9345 52.8062 64.8091 52.8062H60.3899C59.096 52.8062 58.2514 53.3693 58.2514 54.2509L58.2521 60.8541Z" fill="#E48E00"/>
<path d="M86.9732 47.5986C85.1781 47.5496 83.8067 47.7166 82.6337 48.2107C82.3003 48.3515 81.7692 48.355 81.7152 48.7724C81.8979 48.965 81.9263 49.2515 82.072 49.4876C82.3522 49.9404 82.8249 50.5476 83.2465 50.8654C83.7065 51.213 84.1814 51.5855 84.6762 51.887C85.5542 52.423 86.5353 52.7287 87.382 53.2648C87.8804 53.5819 88.3752 53.98 88.8622 54.3376C89.1032 54.5132 89.2639 54.7883 89.5774 54.8985V54.848C89.4132 54.639 89.3705 54.3518 89.2198 54.1328L88.5558 53.4688C87.9067 52.6072 87.0834 51.8514 86.2069 51.223C85.5087 50.7218 83.9461 50.0442 83.6546 49.2316L83.6034 49.1812C84.0982 49.125 84.6783 48.9458 85.1348 48.8236C85.9026 48.6174 86.5886 48.6707 87.3813 48.4659L88.4534 48.1588V47.9555C88.0532 47.5446 87.7667 47 87.3301 46.6282C86.1877 45.6549 84.9393 44.6823 83.6546 43.8705C82.9422 43.4211 82.0614 43.1289 81.3057 42.7479C81.0526 42.6192 80.6061 42.5531 80.4376 42.3391C80.0402 41.8336 79.8248 41.1931 79.5184 40.6037C78.8785 39.3702 78.2486 38.0223 77.6806 36.7234C77.2938 35.8383 77.0407 34.9652 76.558 34.1711C74.2396 30.3598 71.7443 28.0592 67.8789 25.7984C67.0563 25.3171 66.066 25.128 65.0202 24.8799L63.3353 24.7775C62.9933 24.6346 62.6364 24.2152 62.3144 24.0118C61.0333 23.2028 57.7487 21.4432 56.8003 23.7573C56.2017 25.2176 57.6961 26.6423 58.23 27.3824C58.6047 27.9014 59.0853 28.4829 59.3533 29.0666C59.5296 29.4505 59.5595 29.8351 59.7109 30.2411C60.0813 31.2406 60.4048 32.3291 60.8847 33.2526C61.1271 33.7204 61.3951 34.2131 61.7016 34.6311C61.8892 34.887 62.212 35.0008 62.2625 35.3968C61.9475 35.8376 61.9291 36.5229 61.752 37.081C60.9544 39.597 61.2551 42.7244 62.416 44.5864C62.7722 45.1587 63.6111 46.3843 64.7643 45.9137C65.7731 45.5028 65.5484 44.2295 65.8371 43.1055C65.9025 42.8517 65.862 42.664 65.9899 42.4934V42.5445L66.9092 44.3823C67.5895 45.4779 68.796 46.6218 69.819 47.3946C70.3494 47.7948 70.7674 48.488 71.4528 48.7219V48.67H71.4023C71.2686 48.4631 71.0618 48.3778 70.8911 48.2107C70.4916 47.819 70.0472 47.3327 69.7174 46.8834C68.7868 45.6208 67.9649 44.238 67.2156 42.7991C66.858 42.1123 66.5473 41.3544 66.2459 40.6549C66.1293 40.3854 66.1307 39.9774 65.889 39.8387C65.5577 40.3506 65.0721 40.7651 64.8162 41.3701C64.4081 42.337 64.3555 43.5164 64.204 44.7392L64.1017 44.7897C63.39 44.6184 63.1405 43.8861 62.876 43.2583C62.2077 41.6708 62.0833 39.1136 62.672 37.2857C62.8241 36.8123 63.5116 35.3228 63.2329 34.8856C63.1 34.4498 62.6613 34.1981 62.4168 33.864C62.1132 33.4524 61.8096 32.9106 61.5999 32.4343C61.0525 31.1966 60.7972 29.8067 60.2221 28.5547C59.9462 27.9561 59.4813 27.3511 59.0988 26.8193C58.6758 26.2292 58.2016 25.7956 57.8732 25.0832C57.7566 24.8301 57.598 24.4242 57.7708 24.164C57.8255 23.9884 57.9044 23.9151 58.0779 23.8576C58.3737 23.6293 59.1983 23.9336 59.5069 24.0616C60.3259 24.4021 61.0091 24.7256 61.703 25.1849C62.0357 25.406 62.372 25.8325 62.7751 25.9506H63.2343C63.9531 26.1155 64.7586 26.001 65.4297 26.2051C66.617 26.5662 67.6805 27.1272 68.646 27.7371C71.5886 29.5955 73.9937 32.2402 75.6402 35.3954C75.9047 35.9037 76.0198 36.3878 76.2523 36.9267C76.7229 38.013 77.3159 39.1313 77.7837 40.1942C78.2508 41.2542 78.7065 42.3242 79.3669 43.2064C79.7139 43.67 81.0547 43.9188 81.664 44.1762C82.0912 44.3567 82.7908 44.5451 83.1953 44.7883C83.9681 45.2546 84.7174 45.8099 85.4419 46.3203C85.8038 46.5777 86.9178 47.1372 86.9732 47.5986ZM64.1529 28.1481C63.7789 28.141 63.5137 28.1893 63.2336 28.2504V28.3009H63.2848C63.4633 28.6685 63.7782 28.9045 63.9993 29.2202L64.5105 30.2923L64.5609 30.2418C64.8773 30.0193 65.0216 29.6631 65.0202 29.1185C64.8929 28.9848 64.8745 28.8178 64.765 28.6592C64.6199 28.446 64.337 28.3265 64.1529 28.1481Z" fill="#00618A"/>
</svg>
